<?xml version="1.0" encoding="utf-8"?>
<!-- Generator: Adobe Illustrator 16.0.3, SVG Export Plug-In . SVG Version: 6.00 Build 0)  -->
<!DOCTYPE svg PUBLIC "-//W3C//DTD SVG 1.1//EN" "http://www.w3.org/Graphics/SVG/1.1/DTD/svg11.dtd">
<svg version="1.1" id="Layer_1" xmlns="http://www.w3.org/2000/svg" xmlns:xlink="http://www.w3.org/1999/xlink" x="0px" y="0px"
	 width="612px" height="360px" viewBox="0 0 612 360" enable-background="new 0 0 612 360" xml:space="preserve">
<g id="Layer_2">
	<path fill="#010101" d="M0.509,133.72c0-9.67,19.2-9.704,19.2,0c0,9.705,0,92.661,0,95.723c0,9.877-19.2,9.738-19.2,0
		C0.509,222.625,0.509,143.389,0.509,133.72z"/>
	<path fill="#010101" d="M38.909,85.862c0-29.313,47.862-28.844,47.862,0c0,28.843,0,180.962,0,200.718
		c0,31.906-47.862,32.09-47.862,0C38.909,254.949,38.909,115.175,38.909,85.862z"/>
	<path fill="#010101" d="M106.434,28.724c0-37.566,66.783-37.566,66.783,0c0,25.694,0,123.177,0,123.177h258.228
		c0,0,0-85.519,0-123.177s67.154-37.659,67.154,0c0,12.337,0,275.665,0,306.089s-66.782,30.561-66.782,0
		c0-11.039,0.557-124.105,0.557-124.105l-259.156-0.184c0,0-0.047,93.773-0.047,124.289s-66.736,30.516-66.736,0
		C106.434,324.146,106.434,66.29,106.434,28.724z"/>
	<path fill="#010101" d="M610.646,237.945c0,9.67-19.2,9.703-19.2,0c0-9.705,0-92.662,0-95.723c0-9.881,19.2-9.738,19.2,0
		C610.646,149.04,610.646,228.275,610.646,237.945z"/>
	<path fill="#010101" d="M572.245,285.803c0,29.314-47.861,28.844-47.861,0c0-28.842,0-180.961,0-200.717
		c0-31.907,47.861-32.091,47.861,0C572.245,116.716,572.245,256.49,572.245,285.803z"/>
</g>
</svg>
