<?xml version="1.0" encoding="utf-8"?>
<!-- Generator: Adobe Illustrator 16.0.3, SVG Export Plug-In . SVG Version: 6.00 Build 0)  -->
<!DOCTYPE svg PUBLIC "-//W3C//DTD SVG 1.1//EN" "http://www.w3.org/Graphics/SVG/1.1/DTD/svg11.dtd">
<svg version="1.1" id="Layer_1" xmlns="http://www.w3.org/2000/svg" xmlns:xlink="http://www.w3.org/1999/xlink" x="0px" y="0px"
	 width="391px" height="389px" viewBox="0 0 391 389" enable-background="new 0 0 391 389" xml:space="preserve">
<g id="Layer_2">
	<path fill="#010101" d="M369.459,197.834c-13.625,0-49.146-0.001-49.146-0.001l0.021-13.666c25-1.5,24.334-71.667-18-75.5
		C304.584,74.125,239.959,58.375,222,84c-8.75-3.417-42.666-3.833-49.666,24.333c-29.626-1.333-64.75,37.917-34.001,75.833v188.958
		c0,13.813,7.063,14.875,14.125,14.875h153.876c7,0,14.334-0.998,14.334-14.937c0-13.939,0-35.063,0-35.063
		s34.498-0.083,48.666-0.083c14.166,0,21.082-6.918,21.082-20.917v-91.121C390.416,212,390.416,197.834,369.459,197.834z
		 M302.459,174l-120.209,0.334l0.084,40.166c0,18.5-25.25,18.334-25.25-0.25v-45c-18.501-9.375-12.126-49,30-35.625
		c2.583-27.958,30.5-29.792,45.25-25c26-34.042,57.416,5.875,50.25,20.25C317.334,126.917,317.666,169.167,302.459,174z
		 M363.334,296.229c0,6.772-0.031,13.193-7.1,13.193c-7.066,0-17.402-0.001-25.568-0.001s-8.188-6.214-8.188-13.296
		s0.021-52.831,0.021-56.165s-0.834-10.298,6.084-10.298c6.916,0,20.707,0,27.666,0s6.918,3.382,6.918,10.298
		S363.334,289.456,363.334,296.229z"/>
	<path fill="#010101" d="M126.426,366.667V182.333c0,0-33.801-61.958,34.574-78.333c0,0-14.148-13.667-34.574-13.667v-42H53.334
		V90.5c-25.333,0-52.583,20.875-52.583,39s0,237.167,0,237.167H126.426z"/>
	<rect x="53.5" y="1" fill="#010101" width="72.926" height="40.333"/>
</g>
</svg>
