<?xml version="1.0" encoding="utf-8"?>
<!-- Generator: Adobe Illustrator 16.0.3, SVG Export Plug-In . SVG Version: 6.00 Build 0)  -->
<!DOCTYPE svg PUBLIC "-//W3C//DTD SVG 1.1//EN" "http://www.w3.org/Graphics/SVG/1.1/DTD/svg11.dtd">
<svg version="1.1" id="Layer_1" xmlns="http://www.w3.org/2000/svg" xmlns:xlink="http://www.w3.org/1999/xlink" x="0px" y="0px"
	 width="597px" height="461px" viewBox="0 0 597 461" enable-background="new 0 0 597 461" xml:space="preserve">
<g id="Layer_2">
	<path fill="#010101" d="M579.405,1.247c-18.594,0-264.229,0-282.246,0c-18.017,0-23.096,9.469-23.096,29.102
		c0,19.633,0,242.864,0,247.601c0,4.732,0.232,23.096,24.021,23.096c23.791,0,269.47,0,275.777,0
		c6.311,0,22.174-5.385,22.174-28.639c0-23.257,0-224.504,0-242.058C596.036,16.801,592.962,1.247,579.405,1.247z M418.347,233.949
		l-38.615,0.229l0.117-166.414c0,0,48.387,0.16,83.148,0.16s33.57,29.246,33.57,29.246s0.148,30.719,0.148,45.177
		s-11.244,37.208-44.809,37.208c-33.563,0-33.563,0-33.563,0v54.395H418.347z"/>
	<path fill="#010101" d="M491.702,313.237c0,0-170.971,0-195.356,0s-30.922-12.192-30.922-31.672c0-15.977,0-167.89,0-167.89
		s-73.997,0-133.416,0c-57.365,3.738-86.327,91.934-86.327,119.588c-66.146,35.316-45.405,137.152-27.28,151.729v75.674h100.527
		v-38.305l254.965-0.28l0.092,38.585h99.221v-76.237C485.54,365.557,493.386,353.038,491.702,313.237z M83.706,354.814
		c-41.856,0-42.417-66.803,1.868-66.803C125.794,288.013,128.131,354.814,83.706,354.814z M78.379,222.24
		c0,0,11.679-64.699,52.134-79.788c3.011-1.124,124.071-0.678,124.071-0.678l-0.187,78.783
		C254.397,220.559,83.401,218.643,78.379,222.24z M152.001,351.355c-14.46,0-14.46-22.423,0-22.423c0.07,0,189.961,0,190.031,0
		c14.18,0.22,14.18,22.205,0,22.423C341.962,351.355,152.071,351.355,152.001,351.355z M290.833,322.907
		c22.423,0-139.534-0.07-139.534-0.07c-14.46,0-14.46-21.861,0-21.861l110.361,0.069
		C261.662,304.27,268.412,322.907,290.833,322.907z M407.435,354.943c-19.854,0-30.504-14.271-31.953-29.58l64.111-0.004
		C438.06,340.585,427.19,354.943,407.435,354.943z"/>
	<path fill="#010101" d="M418.882,95.714v49.425h32.797c14.379-14.377,19.172-30.256,0-49.425H418.882z"/>
</g>
</svg>
