<?xml version="1.0" encoding="utf-8"?>
<!-- Generator: Adobe Illustrator 16.0.3, SVG Export Plug-In . SVG Version: 6.00 Build 0)  -->
<!DOCTYPE svg PUBLIC "-//W3C//DTD SVG 1.1//EN" "http://www.w3.org/Graphics/SVG/1.1/DTD/svg11.dtd">
<svg version="1.1" id="Layer_1" xmlns="http://www.w3.org/2000/svg" xmlns:xlink="http://www.w3.org/1999/xlink" x="0px" y="0px"
	 width="603px" height="406px" viewBox="0 0 603 406" enable-background="new 0 0 603 406" xml:space="preserve">
<g id="Layer_2">
	<path fill="#010101" d="M601.541,270.855c-49.218,0-68.356,30.71-90.618,30.71c-45.898,0-43.068-30.766-104.151-30.766
		c-61.08,0-67.914,30.766-109.122,30.766c-41.214,0-47.27-30.71-103.517-30.71c-56.248,0-71.673,30.71-107.416,30.71
		c-35.74,0-53.711-30.71-85.154-30.71v45.839c0,0,30.336,25.128,83.198,25.128c52.864,0,61.456-30.257,107.813-30.257
		c46.352,0,31.764,30.257,106.242,30.257c74.478,0,67.996-30.85,107.954-30.85c39.964,0,35.007,30.85,108.058,30.85
		c58.506,0,60.025-27.688,86.713-27.688V270.855L601.541,270.855z"/>
	<path fill="#010101" d="M96.625,275.495c112.664-73.283,183.114,19.299,183.114,19.299h18.637c0,0,29.881-39.379,79.494-42.244
		v-32.861c0,0-26.586-50.856-29.604-116.848c5.192-6.602,18.091-31.554,84.157-43.289c3.015,0.263,21.382-13.558,18.154-32.079
		c-10.752-36.51-58.219-24.206-58.219-24.206C358.914,7.441,291.795,36.86,284.121,89.283c-7.674,52.421,5.483,77.201,5.483,77.201
		C219.979,199.864,98.474,202.145,96.625,275.495z"/>
	<path fill="#010101" d="M467.988,92.413c109.537,0,109.537,150.221,0,150.221S358.451,92.413,467.988,92.413z"/>
	<path fill="#010101" d="M602.587,333.442c-49.219,0-68.363,30.709-90.625,30.709c-45.894,0-43.069-30.764-104.146-30.764
		c-61.083,0-67.916,30.764-109.124,30.764c-41.214,0-47.27-30.709-103.518-30.709s-71.673,30.709-107.416,30.709
		c-35.74,0-53.711-30.709-85.154-30.709v45.838c0,0,30.337,25.129,83.198,25.129c52.865,0,61.456-30.257,107.813-30.257
		c46.352,0,31.764,30.257,106.243,30.257c74.478,0,67.996-30.851,107.957-30.851c39.964,0,35.001,30.851,108.059,30.851
		c73.032,0,60.025-27.688,86.713-27.688L602.587,333.442L602.587,333.442z"/>
</g>
</svg>
