<?xml version="1.0" encoding="utf-8"?>
<!-- Generator: Adobe Illustrator 16.0.3, SVG Export Plug-In . SVG Version: 6.00 Build 0)  -->
<!DOCTYPE svg PUBLIC "-//W3C//DTD SVG 1.1//EN" "http://www.w3.org/Graphics/SVG/1.1/DTD/svg11.dtd">
<svg version="1.1" id="Layer_1" xmlns="http://www.w3.org/2000/svg" xmlns:xlink="http://www.w3.org/1999/xlink" x="0px" y="0px"
	 width="609px" height="609px" viewBox="0 0 609 609" enable-background="new 0 0 609 609" xml:space="preserve">
<g id="Layer_2">
	<path fill="#010101" d="M312.104,595.797"/>
	<path fill="#010101" d="M305.589,1.25C137.867,1.25,1.916,137.214,1.916,304.91c0,167.722,135.951,303.673,303.673,303.673
		c167.709,0,303.66-135.951,303.66-303.673C609.249,137.214,473.298,1.25,305.589,1.25z M305.527,587.906
		c-164.334,0-284.493-141.167-284.493-282.333C21.022,164.406,154.937,23.24,305.527,23.24
		c150.59,0,284.823,140.736,284.886,281.694C590.486,446.311,469.861,587.906,305.527,587.906z"/>
	<path fill="#010101" d="M561.637,303.953c0,97.138-54.091,181.637-133.778,225.015l0.772-137.398
		c94.242,12.959,45.943-235.604,45.943-235.604l-18.456-0.393V325.06l-19.438-0.099l0.196-169.39l-18.198,0.135l-0.258,169.501
		l-13.229-0.196l-0.195-169.438l-14.85-0.196v169.636l-18.848,0.196V155.571l-18.652-0.196c0,0-50.065,243.262,37.5,235.408
		l0.222,154.837c-26.529,9.302-55.048,14.356-84.756,14.356c-23.192,0-45.673-3.093-67.049-8.871l0.54-167.66
		c79.579-10.455,105.913-228.268-18.333-228.268c-124.245,0-106.28,227.236-19.364,227.751l0.258,150.002
		C116.062,502.303,49.589,403.864,49.589,303.953c0-141.387,114.624-256.024,256.024-256.024
		C447.013,47.929,561.637,162.566,561.637,303.953z"/>
	<path fill="#010101" d="M161,228c-47,71.5,21.571,138.843,41.462,134.658C198.266,359.369,143.124,302.184,161,228z"/>
</g>
</svg>
