<?xml version="1.0" encoding="utf-8"?>
<!-- Generator: Adobe Illustrator 16.0.3, SVG Export Plug-In . SVG Version: 6.00 Build 0)  -->
<!DOCTYPE svg PUBLIC "-//W3C//DTD SVG 1.1//EN" "http://www.w3.org/Graphics/SVG/1.1/DTD/svg11.dtd">
<svg version="1.1" id="Layer_1" xmlns="http://www.w3.org/2000/svg" xmlns:xlink="http://www.w3.org/1999/xlink" x="0px" y="0px"
	 width="612px" height="355px" viewBox="0 0 612 355" enable-background="new 0 0 612 355" xml:space="preserve">
<g id="Layer_2">
	<ellipse fill="#010101" cx="419.265" cy="258.786" rx="26.74" ry="26.616"/>
	<path fill="#010101" d="M418.903,75.875c49.383,0,95.182,21.519,128.465,54.646c33.283,33.128,2.773,66.752-27.024,37.093
		c-29.797-29.659-59.511-47.285-101.44-47.285c-41.932,0-73.224,16.706-100.532,43.888c-27.31,27.183-57.464-6.796-30.153-33.978
		C315.525,103.057,369.518,75.875,418.903,75.875z"/>
	<path fill="#010101" d="M417.793,45.578c69.552,0,120.898,32.137,150.056,61.159c29.158,29.021,61.019-4.105,34.138-30.862
		C575.104,49.117,513.801,1.124,417.793,1.124c-96.01,0-157.882,48.276-184.479,74.751c-26.598,26.474,7.468,57.69,34.42,30.862
		C294.688,79.909,339.99,45.578,417.793,45.578z"/>
	<path fill="#010101" d="M417.898,154.049c33.888,0,56.362,12.149,81.963,37.632c25.603,25.483-6.969,51.107-27.593,30.58
		c-20.625-20.527-34.772-23.783-54.37-23.783c-19.592,0-33.388,2.973-54.298,23.783c-20.909,20.812-52.423-5.999-24.179-34.105
		C367.664,160.048,384.017,154.049,417.898,154.049z"/>
</g>
<g id="Layer_3">
	<path fill="#010101" d="M441.234,286.689c0,0,0,3.038,0,15.284s-7.725,15.856-14.602,15.856c-6.876,0-8.734,0-8.734,0l5.698,21.143
		c4.481,16.657-12.515,19.983-17.444,9.817l-9.962-30.837l-348.021,0.031l-10.69,30.806c-5.24,12.29-20.317,1.743-17.067-9.817
		l7.134-20.931c-7.776,0-23.824-1.818-23.824-17.201s0-95.513,0-104.949c0-9.44,5.976-13.972,14.415-13.972s310.072,0,310.072,0
		s-6.188,9.37-7.396,11.142c-5.027,11.334-2.895,23.262-2.895,23.262c1.921,12.6,16.5,19.962,16.5,19.962
		c7.538,2.831,18.35,2.362,28.683-2.267c10.41-5.945,18.539-12.175,18.539-12.175l10.886,11.893c0,0-11.597,12.795-11.597,25.05
		s3.982,18.979,13.654,28.605c9.672,9.628,17.306,7.361,28.447,7.361C434.172,294.754,441.234,286.689,441.234,286.689z"/>
	<path fill="#010101" d="M274.251,141.148c-5.191,11.112,0,20.482,0,20.482h-38.212c0,0-2.987-20.482,13.559-20.482
		C266.144,141.148,274.251,141.148,274.251,141.148z"/>
	<path fill="#010101" d="M208.635,161.632c0,0,1.802-20.482-13.844-20.482c-13.75,0-102.315,0-108.859,0
		c-13.462,4.721-10.429,20.482-10.429,20.482H208.635z"/>
	<path fill="#010101" d="M51.512,161.632c0-28.129,27.309-40.87,27.309-40.87s110.85,0,122.703,0
		c11.852,0,20.955,13.591,20.955,13.591V110.71c-7.965-15.36,0-30.721,0-30.721H72.135c0,0-27.451,0.142-27.451,30.579
		s0,51.063,0,51.063L51.512,161.632L51.512,161.632z"/>
</g>
</svg>
