<?xml version="1.0" encoding="utf-8"?>
<!-- Generator: Adobe Illustrator 16.0.3, SVG Export Plug-In . SVG Version: 6.00 Build 0)  -->
<!DOCTYPE svg PUBLIC "-//W3C//DTD SVG 1.1//EN" "http://www.w3.org/Graphics/SVG/1.1/DTD/svg11.dtd">
<svg version="1.1" id="Layer_1" xmlns="http://www.w3.org/2000/svg" xmlns:xlink="http://www.w3.org/1999/xlink" x="0px" y="0px"
	 width="600px" height="561px" viewBox="0 0 600 561" enable-background="new 0 0 600 561" xml:space="preserve">
<g id="Layer_2">
	<path fill="#010101" d="M543.516,15.277l-109.88,47.969c0,0-156.89-66.173-271.409-0.874L60.666,10.043
		C0.564-21.301,0.564,35.424,0.564,35.424v268.41c0,337.849,597.951,345.073,597.951,0V33.882
		C598.516,33.882,604.722-9.789,543.516,15.277z M190.207,398.133c-80.188,0-80.188-124.355,0-124.355
		S270.395,398.133,190.207,398.133z M406.785,398.133c-80.188,0-80.188-124.355,0-124.355S486.973,398.133,406.785,398.133z"/>
</g>
</svg>
