<?xml version="1.0" encoding="utf-8"?>
<!-- Generator: Adobe Illustrator 16.0.3, SVG Export Plug-In . SVG Version: 6.00 Build 0)  -->
<!DOCTYPE svg PUBLIC "-//W3C//DTD SVG 1.1//EN" "http://www.w3.org/Graphics/SVG/1.1/DTD/svg11.dtd">
<svg version="1.1" id="Layer_1" xmlns="http://www.w3.org/2000/svg" xmlns:xlink="http://www.w3.org/1999/xlink" x="0px" y="0px"
	 width="602px" height="507px" viewBox="0 0 602 507" enable-background="new 0 0 602 507" xml:space="preserve">
<g id="Layer_2">
	<path fill="#010101" d="M416.339,310.188h-83.555l0.05-27.341c0,0,46.602-36.713,57.441-74.375c0,0,20.828-39.66,7.61-94.535
		c0,0-23.872-101.569-84.075-101.569c0,0-41.086-18.171-65.815-9.13c-24.729,9.037-38.041,28.906-47.171,46.409
		c-12.839,15.594-19.117,130.293,9.986,130.293c0,0,29.103,102.907,64.959,102.907v27.771h-74.945c0,0-26.82-2.283-26.82,19.972
		c0,23.967,0,128.965,0,128.965c35.665,35.665,216.085,44.894,260.975,0c0,0,0-121.546,0-130.293
		C434.979,314.04,416.339,310.188,416.339,310.188z M394.842,127.868c4.137,1.712-0.57,61.059-7.419,61.63
		c-14.551,1.141-6.144-23.24-8.417-28.676c-0.713-11.128-44.599-29.143-27.676-36.235
		C351.33,124.587,383.855,117.74,394.842,127.868z M205.772,87.875c-19.78-21.113,35.759-100.624,89.016-76.082
		c7.423,8.751-26.37,15.621-46.792,26.819C233.003,46.838,213.762,95.863,205.772,87.875z M317.997,31.386
		c3.272,0,49.267,5.323,65.437,80.839c-27.199-5.519-99.295-2.091-115.368,4.547c-49.173,23.984-24.444,59.557-48.603,54.037
		c-16.165-0.379-15.973-52.308-4.373-74.563C235.7,62.41,268.539,31.386,317.997,31.386z M302.398,265.348
		c-21.778,0-22.063-11.318-22.063-11.318c3.517,2.661,12.647,3.09,21.992,3.09c11.039,0,17.819-1.093,20.971-1.854
		C323.298,255.264,320.797,265.348,302.398,265.348z M302.255,254.337c-6.161,0-17.926,0.642-21.733-2.876
		c0,0-1.685-9.821,21.591-9.821c23.916,0,20.984,10.628,20.984,10.628C318.232,254.266,307.773,254.337,302.255,254.337z"/>
	<path fill="#010101" d="M440.679,497.215c67.527-39.374,5.516-83.884,5.516-83.884c44.317,8.367,69.238,29.529,69.238,41.941
		S494.511,490.176,440.679,497.215z"/>
	<path fill="#010101" d="M487.472,396.212c152.36,63.911,0,108.992,0,108.992c83.121,0.569,112.986-36.808,112.986-49.932
		S568.694,397.732,487.472,396.212z"/>
	<path fill="#010101" d="M161.071,406.301c-67.527,39.374-5.515,83.884-5.515,83.884c-44.318-8.368-69.239-29.53-69.239-41.942
		C86.317,435.831,107.239,413.34,161.071,406.301"/>
	<path fill="#010101" d="M114.279,507.304c-152.361-63.912,0-108.992,0-108.992C31.157,397.742,1.292,435.119,1.292,448.243
		S33.056,505.783,114.279,507.304z"/>
</g>
</svg>
