<?xml version="1.0" encoding="utf-8"?>
<!-- Generator: Adobe Illustrator 16.0.3, SVG Export Plug-In . SVG Version: 6.00 Build 0)  -->
<!DOCTYPE svg PUBLIC "-//W3C//DTD SVG 1.1//EN" "http://www.w3.org/Graphics/SVG/1.1/DTD/svg11.dtd">
<svg version="1.1" id="Layer_1" xmlns="http://www.w3.org/2000/svg" xmlns:xlink="http://www.w3.org/1999/xlink" x="0px" y="0px"
	 width="612px" height="517px" viewBox="0 0 612 517" enable-background="new 0 0 612 517" xml:space="preserve">
<g id="Layer_2">
	<path fill="#010101" d="M326.155,237.598c-0.003,10.676-8.324,19.324-18.591,19.324c-10.269,0-18.588-8.648-18.586-19.324
		c-0.001-10.672,8.32-19.322,18.587-19.322C317.832,218.275,326.152,226.926,326.155,237.598z"/>
	<path fill="#010101" d="M307.314,104.795c34.327,0,66.164,15.625,89.303,39.68c23.136,24.05,1.928,48.461-18.787,26.928
		c-20.713-21.533-41.369-34.332-70.516-34.332c-29.15,0.003-50.902,12.131-69.885,31.865c-18.987,19.735-39.947-4.934-20.962-24.67
		C235.45,124.53,272.983,104.795,307.314,104.795z"/>
	<path fill="#010101" d="M306.542,82.798c48.351,0,84.042,23.334,104.314,44.404c20.271,21.073,42.415-2.981,23.729-22.408
		C415.897,85.366,373.28,50.52,306.543,50.52c-66.742,0-109.753,35.052-128.241,54.274c-18.489,19.221,5.192,41.888,23.927,22.408
		C220.966,107.725,252.457,82.798,306.542,82.798z"/>
	<path fill="#010101" d="M306.616,161.555c23.558,0,39.178,8.819,56.976,27.321c17.8,18.504-4.843,37.108-19.18,22.202
		c-14.339-14.903-24.173-17.267-37.797-17.269c-13.619,0-23.209,2.159-37.745,17.269s-36.442-4.354-16.809-24.765
		C271.694,165.909,283.062,161.555,306.616,161.555z"/>
</g>
<g id="Layer_3">
	<path fill="#010101" d="M580.675,516.951l0.063-431.648H607.5V58.541H465.905V28.172h26.952l0.096-27.143H121.979v27.08l26.7-0.127
		l0.126,30.369H7.209l-0.126,27.08h27.205L32.77,517.458 M61.368,516.761L61.336,85.493l87.405-0.095l0.095,431.553L61.368,516.761z
		 M438.93,516.896l-188.643-0.053l-0.252-73.663l44.161-0.126l-0.063,73.804l26.826,0.006l0.063-74.243l43.529,0.183l0.253,74.072
		l30.369,0.009v-87.242c0,0,0.759-13.793-13.54-13.793s-131.892-0.014-131.892-0.014s-1.352-0.081-16.441-0.081
		c-15.089,0-13.666,13.666-13.666,13.666l0.095,87.417l-42.896-0.012l0.129-381.44c-4.905-4.905-13.932-19.025,0.011-32.968
		l0.025-74.11l261.932-0.253v76.742c8.915,8.914,5.935,24.967,0,30.901V516.896L438.93,516.896z M552.836,516.445l-86.551,0.095
		l0.38-430.478h86.171V516.445z"/>
	<rect x="206.252" y="344.861" fill="#010101" width="30.369" height="43.274"/>
	<rect x="263.699" y="345.113" fill="#010101" width="30.369" height="43.274"/>
	<rect x="320.895" y="345.115" fill="#010101" width="30.368" height="43.274"/>
	<rect x="378.342" y="345.367" fill="#010101" width="30.368" height="43.274"/>
	<rect x="206.316" y="270.363" fill="#010101" width="30.369" height="43.274"/>
	<rect x="263.763" y="270.615" fill="#010101" width="30.369" height="43.274"/>
	<rect x="320.958" y="270.616" fill="#010101" width="30.369" height="43.274"/>
	<rect x="378.405" y="270.868" fill="#010101" width="30.369" height="43.275"/>
	<rect x="492.225" y="415.975" fill="#010101" width="30.369" height="43.275"/>
	<rect x="492.288" y="341.476" fill="#010101" width="30.369" height="43.276"/>
	<rect x="492.161" y="271.659" fill="#010101" width="30.368" height="43.274"/>
	<rect x="492.226" y="197.16" fill="#010101" width="30.369" height="43.274"/>
	<rect x="492.288" y="128.515" fill="#010101" width="30.369" height="43.275"/>
	<rect x="91.356" y="415.975" fill="#010101" width="30.369" height="43.275"/>
	<rect x="91.42" y="341.476" fill="#010101" width="30.369" height="43.276"/>
	<rect x="91.292" y="271.659" fill="#010101" width="30.369" height="43.274"/>
	<rect x="91.358" y="197.16" fill="#010101" width="30.369" height="43.274"/>
	<rect x="91.42" y="128.515" fill="#010101" width="30.369" height="43.275"/>
</g>
</svg>
