<?xml version="1.0" encoding="utf-8"?>
<!-- Generator: Adobe Illustrator 19.0.0, SVG Export Plug-In . SVG Version: 6.00 Build 0)  -->
<svg version="1.1" id="Layer_1" xmlns="http://www.w3.org/2000/svg" xmlns:xlink="http://www.w3.org/1999/xlink" x="0px" y="0px"
	 viewBox="0 0 96 96" style="enable-background:new 0 0 96 96;" xml:space="preserve">
<style type="text/css">
	.st0{fill:#77B3D4;}
	.st1{fill:#6695B0;}
	.st2{fill:#FFFFFF;}
</style>
<g id="XMLID_1_">
	<path id="XMLID_3_" class="st0" d="M48,15.5c17.9,0,32.5,14.6,32.5,32.5S65.9,80.5,48,80.5c-17.9,0-32.5-14.6-32.5-32.5
		S30.1,15.5,48,15.5"/>
	<path id="XMLID_6_" class="st1" d="M48,57.5c-4.2,0-7.5-3.4-7.5-7.5c0-4.2,3.4-7.5,7.5-7.5c4.2,0,7.5,3.4,7.5,7.5
		C55.5,54.2,52.2,57.5,48,57.5 M48,27.7c-12.3,0-22.3,10.1-22.3,22.3c0,12.3,10.1,22.3,22.3,22.3c3.6,0,7.1-0.8,10.3-2.4
		c1-0.5,1.4-1.7,0.9-2.7c-0.4-0.7-1.1-1.1-1.8-1.1c-0.3,0-0.6,0.1-0.9,0.2c-2.6,1.3-5.4,2-8.3,2C38,68.3,29.8,60.1,29.8,50
		c0-10.1,8.2-18.3,18.3-18.3S66.4,40,66.4,50c0,3-0.8,6.1-2.2,8.7c-1.8-1.4-4.5-4.3-4.5-8.6v-8.9c0-1.1-0.9-2-2-2c-1.1,0-2,0.9-2,2
		v0.1c-2-1.7-4.7-2.8-7.5-2.8c-6.4,0-11.6,5.2-11.6,11.6c0,6.4,5.1,11.6,11.5,11.6c3.8,0,7.1-1.8,9.2-4.7c2.3,4.3,6.3,6.4,6.5,6.5
		c0.3,0.2,0.6,0.2,1,0.2c0.6,0,1.3-0.3,1.7-0.9c2.6-3.8,4-8.1,4-12.8C70.3,37.7,60.3,27.7,48,27.7"/>
	<path id="XMLID_7_" class="st2" d="M48,70.3c-12.3,0-22.3-10.1-22.3-22.3c0-12.3,10.1-22.3,22.3-22.3S70.3,35.7,70.3,48
		c0,4.6-1.4,9-4,12.8c-0.6,0.8-1.7,1.1-2.6,0.6c-0.3-0.2-8.2-4.3-8.2-13.3v-8.9c0-1.1,0.9-2,2-2c1.1,0,2,0.9,2,2v8.9
		c0,4.4,2.6,7.2,4.5,8.6c1.4-2.6,2.2-5.7,2.2-8.7c0-10.1-8.2-18.3-18.3-18.3S29.7,37.9,29.7,48c0,10.1,8.2,18.3,18.3,18.3
		c2.9,0,5.8-0.7,8.3-2c1-0.5,2.2-0.1,2.7,0.9c0.5,1,0.1,2.2-0.9,2.7C55.1,69.5,51.6,70.3,48,70.3z"/>
	<path id="XMLID_10_" class="st2" d="M48,40.5c4.2,0,7.5,3.4,7.5,7.5c0,4.2-3.4,7.5-7.5,7.5s-7.5-3.4-7.5-7.5
		C40.5,43.8,43.8,40.5,48,40.5 M48,36.4c-6.4,0-11.6,5.2-11.6,11.6S41.6,59.6,48,59.6S59.6,54.4,59.6,48S54.4,36.4,48,36.4z"/>
</g>
</svg>
