<?xml version="1.0" encoding="utf-8"?>
<!-- Generator: Adobe Illustrator 19.0.0, SVG Export Plug-In . SVG Version: 6.00 Build 0)  -->
<svg version="1.1" id="Layer_1" xmlns="http://www.w3.org/2000/svg" xmlns:xlink="http://www.w3.org/1999/xlink" x="0px" y="0px"
	 viewBox="0 0 96 96" style="enable-background:new 0 0 96 96;" xml:space="preserve">
<style type="text/css">
	.st0{fill:#77B3D4;}
	.st1{fill:#6695B0;}
	.st2{fill:#FFFFFF;}
</style>
<g id="XMLID_1_">
	<path id="XMLID_3_" class="st0" d="M48,15.5c17.9,0,32.5,14.6,32.5,32.5S65.9,80.5,48,80.5c-17.9,0-32.5-14.6-32.5-32.5
		S30.1,15.5,48,15.5"/>
	<path id="XMLID_4_" class="st1" d="M38.6,33.8c-5.9,1-6.7,4.4-6.8,4.6c0,0.2,0,0.4,0,0.6c7,21.7,21.5,25.7,26.3,27
		c0.4,0.1,0.7,0.2,0.9,0.3c0.1,0,0.2,0.1,0.3,0.1c0.2,0,0.3,0,0.5-0.1c0.1-0.1,3.6-1.7,4.5-7c0-0.2,0-0.5-0.1-0.7
		c-0.1-0.1-1.9-3.6-6.9-4.8c-0.1,0-0.2,0-0.3,0c-0.3,0-0.5,0.1-0.8,0.2c-1.6,1.3-3.8,2.7-4.7,2.9c-6.3-3-9.9-9-10-10.2
		c-0.1-0.6,1.3-2.8,3-4.7c0.2-0.2,0.3-0.6,0.3-0.9c-0.4-4.9-5.5-7.2-5.7-7.3C39,33.8,38.8,33.8,38.6,33.8"/>
	<path id="XMLID_5_" class="st2" d="M45,39.2c-0.4-4.9-5.5-7.2-5.7-7.3c-0.3-0.1-0.5-0.1-0.7-0.1c-5.9,1-6.7,4.4-6.8,4.6
		c0,0.2,0,0.4,0,0.6c7,21.7,21.5,25.7,26.3,27c0.4,0.1,0.7,0.2,0.9,0.3c0.1,0,0.2,0.1,0.3,0.1c0.2,0,0.3,0,0.5-0.1
		c0.1-0.1,3.6-1.7,4.5-7c0-0.2,0-0.5-0.1-0.7c-0.1-0.1-1.9-3.6-6.9-4.8c-0.3-0.1-0.7,0-1,0.2c-1.6,1.3-3.8,2.7-4.7,2.9
		c-6.3-3-9.9-9-10-10.2c-0.1-0.6,1.3-2.8,3-4.7C44.9,39.9,45,39.5,45,39.2z"/>
</g>
</svg>
